<?xml version="1.0" encoding="UTF-8" standalone="no"?>
<!-- Created with Inkscape (http://www.inkscape.org/) -->

<svg
   width="62mm"
   height="62mm"
   viewBox="0 0 62 62"
   version="1.1"
   id="svg5"
   inkscape:version="1.1.2 (0a00cf5339, 2022-02-04)"
   sodipodi:docname="Logo_round.svg"
   xmlns:inkscape="http://www.inkscape.org/namespaces/inkscape"
   xmlns:sodipodi="http://sodipodi.sourceforge.net/DTD/sodipodi-0.dtd"
   xmlns="http://www.w3.org/2000/svg"
   xmlns:svg="http://www.w3.org/2000/svg">
  <sodipodi:namedview
     id="namedview7"
     pagecolor="#ffffff"
     bordercolor="#666666"
     borderopacity="1.0"
     inkscape:pageshadow="2"
     inkscape:pageopacity="0.0"
     inkscape:pagecheckerboard="0"
     inkscape:document-units="mm"
     showgrid="false"
     inkscape:zoom="1.0998546"
     inkscape:cx="20.002644"
     inkscape:cy="174.11392"
     inkscape:window-width="5120"
     inkscape:window-height="1376"
     inkscape:window-x="0"
     inkscape:window-y="27"
     inkscape:window-maximized="1"
     inkscape:current-layer="layer1">
    <inkscape:grid
       type="xygrid"
       id="grid9"
       originx="-25.444161"
       originy="-65.802705" />
  </sodipodi:namedview>
  <defs
     id="defs2">
    <rect
       x="-1937.6309"
       y="-3766.0417"
       width="756.80225"
       height="662.9223"
       id="rect168231" />
    <rect
       x="2200"
       y="960"
       width="400"
       height="80"
       id="rect88264" />
    <rect
       x="-835"
       y="590"
       width="65"
       height="55"
       id="rect24738" />
    <rect
       x="80"
       y="820"
       width="220"
       height="170"
       id="rect14761" />
    <rect
       x="-835"
       y="590"
       width="65"
       height="55"
       id="rect24738-3" />
    <rect
       x="-835"
       y="590"
       width="65"
       height="55"
       id="rect24738-5" />
    <rect
       x="-835"
       y="590"
       width="65"
       height="55"
       id="rect24738-2" />
    <rect
       x="-835"
       y="590"
       width="65"
       height="55"
       id="rect24738-9" />
    <rect
       x="-835"
       y="590"
       width="65"
       height="55"
       id="rect24738-95" />
    <rect
       x="-835"
       y="590"
       width="65"
       height="55"
       id="rect24738-9-2" />
    <rect
       x="-835"
       y="590"
       width="65"
       height="55"
       id="rect24738-2-8" />
    <rect
       x="-835"
       y="590"
       width="65"
       height="55"
       id="rect24738-3-7" />
    <rect
       x="-835"
       y="590"
       width="65"
       height="55"
       id="rect24738-5-0" />
    <rect
       x="80"
       y="820"
       width="220"
       height="170"
       id="rect14761-5" />
    <rect
       x="80"
       y="820"
       width="220"
       height="170"
       id="rect14761-5-1" />
    <rect
       x="80"
       y="820"
       width="220"
       height="170"
       id="rect14761-5-1-7" />
    <rect
       x="80"
       y="820"
       width="220"
       height="170"
       id="rect14761-5-1-3" />
    <rect
       x="80"
       y="820"
       width="220"
       height="170"
       id="rect14761-5-1-2" />
    <rect
       x="80"
       y="820"
       width="220"
       height="170"
       id="rect14761-5-1-3-7" />
    <rect
       x="80"
       y="820"
       width="220"
       height="170"
       id="rect14761-5-1-79" />
    <rect
       x="80"
       y="820"
       width="220"
       height="170"
       id="rect14761-5-1-3-7-5" />
    <rect
       x="80"
       y="820"
       width="220"
       height="170"
       id="rect14761-5-1-3-7-5-4" />
    <rect
       x="80"
       y="820"
       width="220"
       height="170"
       id="rect14761-5-1-3-7-5-4-0" />
    <rect
       x="80"
       y="820"
       width="220"
       height="170"
       id="rect14761-5-1-79-6" />
    <rect
       x="80"
       y="820"
       width="220"
       height="170"
       id="rect14761-5-1-79-6-6" />
    <rect
       x="80"
       y="820"
       width="220"
       height="170"
       id="rect14761-5-1-79-6-6-5" />
    <rect
       x="80"
       y="820"
       width="220"
       height="170"
       id="rect14761-5-1-79-6-6-58" />
    <rect
       x="80"
       y="820"
       width="220"
       height="170"
       id="rect14761-5-1-79-6-6-58-2" />
    <rect
       x="80"
       y="820"
       width="220"
       height="170"
       id="rect14761-5-1-79-6-6-5-0" />
    <rect
       x="80"
       y="820"
       width="220"
       height="170"
       id="rect14761-5-1-79-6-6-58-27" />
    <rect
       x="80"
       y="820"
       width="220"
       height="170"
       id="rect14761-5-1-79-6-6-5-0-5" />
    <rect
       x="80"
       y="820"
       width="220"
       height="170"
       id="rect14761-5-1-79-6-6-5-0-5-6" />
    <rect
       x="80"
       y="820"
       width="220"
       height="170"
       id="rect14761-5-1-79-6-6-5-0-5-6-3" />
    <rect
       x="80"
       y="820"
       width="220"
       height="170"
       id="rect14761-5-1-79-6-6-5-0-5-6-7" />
  </defs>
  <g
     inkscape:label="Layer 1"
     inkscape:groupmode="layer"
     id="layer1"
     transform="translate(-25.44416,-65.802704)">
    <text
       xml:space="preserve"
       transform="scale(0.26458333)"
       id="text88262"
       style="font-style:normal;font-weight:normal;font-size:40px;line-height:1.25;font-family:sans-serif;white-space:pre;shape-inside:url(#rect88264);fill:#000000;fill-opacity:1;stroke:none" />
    <text
       xml:space="preserve"
       transform="scale(0.26458333)"
       id="text168229"
       style="font-style:normal;font-weight:normal;font-size:40px;line-height:1.25;font-family:sans-serif;white-space:pre;shape-inside:url(#rect168231);fill:#000000;fill-opacity:1;stroke:none" />
    <rect
       style="fill:#ffd27c;fill-opacity:1;stroke:none;stroke-width:1.1519;stroke-linejoin:round;stroke-miterlimit:4;stroke-dasharray:none;stroke-opacity:1"
       id="rect96658-0-7-1-2-1-18-5-4"
       width="62"
       height="62"
       x="25.44416"
       y="65.802704"
       ry="31"
       inkscape:export-filename="/data/Engagement/Projects/Dynamic Labs/logo_round_512.png"
       inkscape:export-xdpi="209.75"
       inkscape:export-ydpi="209.75" />
    <path
       style="fill:#fffffd;fill-opacity:0.772662;stroke:#000000;stroke-width:2.097;stroke-linecap:butt;stroke-linejoin:round;stroke-miterlimit:4;stroke-dasharray:none;stroke-opacity:1"
       d="m 42.966803,112.53331 c -1.84942,3.69887 2.77421,6.47302 6.25979,6.47302 h 14.71714 c 4.01163,0.007 8.614,-2.77415 6.76458,-6.47302 0,0 -8.66616,-9.27142 -10.17189,-13.87075 -1.50567,-4.59932 0.55488,-11.83636 0.55488,-11.83636 h -8.69233 c 0,0 2.24544,7.23704 0.73972,11.83636 -1.50573,4.59933 -10.17189,13.87075 -10.17189,13.87075 z"
       id="path44-2-6-2-3-1-1-2-1-7-1-1-6-2-0"
       sodipodi:nodetypes="cccczcczc"
       inkscape:export-filename="/data/Engagement/Projects/Dynamic Labs/logo_round_512.png"
       inkscape:export-xdpi="209.75"
       inkscape:export-ydpi="209.75" />
    <path
       id="path44-2-3-6-2-3-1-4-0-7-6-3-2-2-1"
       style="fill:#9e00d8;fill-opacity:1;stroke:none;stroke-width:2.25819;stroke-linecap:butt;stroke-linejoin:round;stroke-miterlimit:4;stroke-dasharray:none;stroke-opacity:1"
       d="m 52.398043,106.98501 c -1.90267,-0.03 -4.3189,0.59851 -7.64021,2.41514 -0.86877,1.18168 -1.44371,1.924 -1.44371,1.924 -1.81391,4.3733 2.72107,7.65328 6.13979,7.65328 h 14.43477 c 3.93464,0.009 8.44864,-3.27998 6.63467,-7.65328 0,0 -0.56738,-0.73254 -1.4278,-1.90222 -9.70041,5.1852 -10.30567,-2.3362 -16.69751,-2.43692 z"
       inkscape:export-filename="/data/Engagement/Projects/Dynamic Labs/logo_round_512.png"
       inkscape:export-xdpi="209.75"
       inkscape:export-ydpi="209.75" />
    <circle
       style="fill:#9e00d8;fill-opacity:1;stroke:none;stroke-width:2.097;stroke-linejoin:round;stroke-miterlimit:4;stroke-dasharray:none"
       id="path8669-3-2-48-6-3-4-5-8-7-7-8-4"
       cx="59.889061"
       cy="104.67321"
       r="1.3870747"
       inkscape:export-filename="/data/Engagement/Projects/Dynamic Labs/logo_round_512.png"
       inkscape:export-xdpi="209.75"
       inkscape:export-ydpi="209.75" />
    <circle
       style="fill:#9e00d8;fill-opacity:1;stroke:none;stroke-width:2.097;stroke-linejoin:round;stroke-miterlimit:4;stroke-dasharray:none"
       id="path8671-2-7-2-7-5-3-4-8-9-6-3-2"
       cx="56.652565"
       cy="100.51197"
       r="0.92471647"
       inkscape:export-filename="/data/Engagement/Projects/Dynamic Labs/logo_round_512.png"
       inkscape:export-xdpi="209.75"
       inkscape:export-ydpi="209.75" />
    <path
       style="fill:none;fill-opacity:1;stroke:#000000;stroke-width:2.097;stroke-linecap:butt;stroke-linejoin:round;stroke-miterlimit:4;stroke-dasharray:none;stroke-opacity:1"
       d="m 42.966803,112.34836 c -1.84942,3.69887 2.77421,6.47303 6.25979,6.47303 h 14.71714 c 4.01163,0.007 8.61406,-2.77416 6.76458,-6.47303 0,0 -8.66616,-9.27142 -10.17189,-13.87075 -1.50567,-4.59931 0.55488,-11.83636 0.55488,-11.83636 h -8.69233 c 0,0 2.24544,7.23705 0.73972,11.83636 -1.50573,4.59933 -10.17189,13.87075 -10.17189,13.87075 z"
       id="path44-2-2-8-5-5-8-5-1-2-0-6-6-7"
       sodipodi:nodetypes="cccczcczc"
       inkscape:export-filename="/data/Engagement/Projects/Dynamic Labs/logo_round_512.png"
       inkscape:export-xdpi="209.75"
       inkscape:export-ydpi="209.75" />
    <circle
       style="fill:#9e00d8;fill-opacity:1;stroke:none;stroke-width:2.097;stroke-linejoin:round;stroke-miterlimit:4;stroke-dasharray:none"
       id="path8673-7-2-6-0-4-2-4-9-1-1-9-3"
       cx="58.039619"
       cy="81.55529"
       r="1.3870747"
       inkscape:export-filename="/data/Engagement/Projects/Dynamic Labs/logo_round_512.png"
       inkscape:export-xdpi="209.75"
       inkscape:export-ydpi="209.75" />
    <circle
       style="fill:#9e00d8;fill-opacity:1;stroke:none;stroke-width:2.097;stroke-linejoin:round;stroke-miterlimit:4;stroke-dasharray:none"
       id="path8675-4-6-60-4-4-4-6-4-3-9-2-5"
       cx="53.380272"
       cy="76.469368"
       r="2.7741494"
       inkscape:export-filename="/data/Engagement/Projects/Dynamic Labs/logo_round_512.png"
       inkscape:export-xdpi="209.75"
       inkscape:export-ydpi="209.75" />
    <circle
       style="fill:#9e00d8;fill-opacity:1;stroke:none;stroke-width:2.097;stroke-linejoin:round;stroke-miterlimit:4;stroke-dasharray:none"
       id="path8677-2-5-0-8-6-8-2-2-2-3-6-7"
       cx="59.317314"
       cy="72.300163"
       r="0.92471647"
       inkscape:export-filename="/data/Engagement/Projects/Dynamic Labs/logo_round_512.png"
       inkscape:export-xdpi="209.75"
       inkscape:export-ydpi="209.75" />
  </g>
</svg>
