<?xml version="1.0" encoding="UTF-8" standalone="no"?>
<!-- Created with Inkscape (http://www.inkscape.org/) -->

<svg
   width="210mm"
   height="297mm"
   viewBox="0 0 210 297"
   version="1.1"
   id="svg5"
   inkscape:version="1.1.2 (0a00cf5339, 2022-02-04)"
   sodipodi:docname="LOGO.svg"
   xmlns:inkscape="http://www.inkscape.org/namespaces/inkscape"
   xmlns:sodipodi="http://sodipodi.sourceforge.net/DTD/sodipodi-0.dtd"
   xmlns="http://www.w3.org/2000/svg"
   xmlns:svg="http://www.w3.org/2000/svg">
  <sodipodi:namedview
     id="namedview7"
     pagecolor="#ffffff"
     bordercolor="#666666"
     borderopacity="1.0"
     inkscape:pageshadow="2"
     inkscape:pageopacity="0.0"
     inkscape:pagecheckerboard="0"
     inkscape:document-units="mm"
     showgrid="false"
     inkscape:zoom="1.0998546"
     inkscape:cx="116.37902"
     inkscape:cy="423.23776"
     inkscape:window-width="5120"
     inkscape:window-height="1376"
     inkscape:window-x="0"
     inkscape:window-y="27"
     inkscape:window-maximized="1"
     inkscape:current-layer="layer1">
    <inkscape:grid
       type="xygrid"
       id="grid9" />
  </sodipodi:namedview>
  <defs
     id="defs2">
    <rect
       x="-1937.6308"
       y="-3766.0417"
       width="756.80222"
       height="662.92231"
       id="rect168231" />
    <rect
       x="2200"
       y="960"
       width="400"
       height="80"
       id="rect88264" />
    <rect
       x="-835"
       y="590"
       width="65"
       height="55"
       id="rect24738" />
    <rect
       x="80"
       y="820"
       width="220"
       height="170"
       id="rect14761" />
    <rect
       x="-835"
       y="590"
       width="65"
       height="55"
       id="rect24738-3" />
    <rect
       x="-835"
       y="590"
       width="65"
       height="55"
       id="rect24738-5" />
    <rect
       x="-835"
       y="590"
       width="65"
       height="55"
       id="rect24738-2" />
    <rect
       x="-835"
       y="590"
       width="65"
       height="55"
       id="rect24738-9" />
    <rect
       x="-835"
       y="590"
       width="65"
       height="55"
       id="rect24738-95" />
    <rect
       x="-835"
       y="590"
       width="65"
       height="55"
       id="rect24738-9-2" />
    <rect
       x="-835"
       y="590"
       width="65"
       height="55"
       id="rect24738-2-8" />
    <rect
       x="-835"
       y="590"
       width="65"
       height="55"
       id="rect24738-3-7" />
    <rect
       x="-835"
       y="590"
       width="65"
       height="55"
       id="rect24738-5-0" />
    <rect
       x="80"
       y="820"
       width="220"
       height="170"
       id="rect14761-5" />
    <rect
       x="80"
       y="820"
       width="220"
       height="170"
       id="rect14761-5-1" />
    <rect
       x="80"
       y="820"
       width="220"
       height="170"
       id="rect14761-5-1-7" />
    <rect
       x="80"
       y="820"
       width="220"
       height="170"
       id="rect14761-5-1-3" />
    <rect
       x="80"
       y="820"
       width="220"
       height="170"
       id="rect14761-5-1-2" />
    <rect
       x="80"
       y="820"
       width="220"
       height="170"
       id="rect14761-5-1-3-7" />
    <rect
       x="80"
       y="820"
       width="220"
       height="170"
       id="rect14761-5-1-79" />
    <rect
       x="80"
       y="820"
       width="220"
       height="170"
       id="rect14761-5-1-3-7-5" />
    <rect
       x="80"
       y="820"
       width="220"
       height="170"
       id="rect14761-5-1-3-7-5-4" />
    <rect
       x="80"
       y="820"
       width="220"
       height="170"
       id="rect14761-5-1-3-7-5-4-0" />
    <rect
       x="80"
       y="820"
       width="220"
       height="170"
       id="rect14761-5-1-79-6" />
    <rect
       x="80"
       y="820"
       width="220"
       height="170"
       id="rect14761-5-1-79-6-6" />
    <rect
       x="80"
       y="820"
       width="220"
       height="170"
       id="rect14761-5-1-79-6-6-5" />
    <rect
       x="80"
       y="820"
       width="220"
       height="170"
       id="rect14761-5-1-79-6-6-58" />
    <rect
       x="80"
       y="820"
       width="220"
       height="170"
       id="rect14761-5-1-79-6-6-58-2" />
    <rect
       x="80"
       y="820"
       width="220"
       height="170"
       id="rect14761-5-1-79-6-6-5-0" />
    <rect
       x="80"
       y="820"
       width="220"
       height="170"
       id="rect14761-5-1-79-6-6-58-27" />
    <rect
       x="80"
       y="820"
       width="220"
       height="170"
       id="rect14761-5-1-79-6-6-5-0-5" />
    <rect
       x="80"
       y="820"
       width="220"
       height="170"
       id="rect14761-5-1-79-6-6-5-0-5-6" />
    <rect
       x="80"
       y="820"
       width="220"
       height="170"
       id="rect14761-5-1-79-6-6-5-0-5-6-3" />
    <rect
       x="80"
       y="820"
       width="220"
       height="170"
       id="rect14761-5-1-79-6-6-5-0-5-6-7" />
  </defs>
  <g
     inkscape:label="Layer 1"
     inkscape:groupmode="layer"
     id="layer1">
    <text
       xml:space="preserve"
       transform="scale(0.26458333)"
       id="text88262"
       style="fill:black;fill-opacity:1;line-height:1.25;stroke:none;font-family:sans-serif;font-style:normal;font-weight:normal;font-size:40px;white-space:pre;shape-inside:url(#rect88264)" />
    <text
       xml:space="preserve"
       transform="matrix(0.50399057,0,0,0.50399057,49.113044,-245.24384)"
       id="text14759-8-2-5-2-8-9-7-5-2"
       style="font-style:normal;font-weight:normal;font-size:40px;line-height:1.25;font-family:sans-serif;white-space:pre;shape-inside:url(#rect14761-5-1-79-6-6-5-0-5-6);fill:#000000;fill-opacity:1;stroke:none"
       inkscape:export-filename="/data/Engagement/Projects/Dynamic Labs/logo_name_64.png"
       inkscape:export-xdpi="33.830772"
       inkscape:export-ydpi="33.830772"><tspan
         x="80"
         y="855.39062"
         id="tspan170755">Dynamic<tspan
   style="font-weight:bold"
   id="tspan170753"> </tspan></tspan></text>
    <text
       xml:space="preserve"
       style="font-style:normal;font-weight:normal;font-size:21.2957px;line-height:1.25;font-family:sans-serif;fill:#000000;fill-opacity:1;stroke:none;stroke-width:0.532397"
       x="89.06028"
       y="204.99409"
       id="text90444-8-3-8-4-8-8-6-3"
       inkscape:export-filename="/data/Engagement/Projects/Dynamic Labs/logo_name_64.png"
       inkscape:export-xdpi="33.830772"
       inkscape:export-ydpi="33.830772"><tspan
         sodipodi:role="line"
         id="tspan90442-9-6-8-0-2-5-9-9"
         style="font-weight:bold;stroke-width:0.532397"
         x="89.06028"
         y="204.99409">Labs</tspan></text>
    <text
       xml:space="preserve"
       transform="scale(0.26458333)"
       id="text168229"
       style="fill:black;fill-opacity:1;line-height:1.25;stroke:none;font-family:sans-serif;font-style:normal;font-weight:normal;font-size:40px;white-space:pre;shape-inside:url(#rect168231)" />
    <rect
       style="fill:#ffd27c;fill-opacity:1;stroke:none;stroke-width:1.1519;stroke-linejoin:round;stroke-miterlimit:4;stroke-dasharray:none;stroke-opacity:1"
       id="rect96658-0-7-1-2-1-18-5"
       width="62"
       height="62"
       x="121.14067"
       y="67.567345"
       ry="8.140976"
       inkscape:export-filename="/data/Engagement/Projects/Dynamic Labs/logo_square_128.png"
       inkscape:export-xdpi="52.439999"
       inkscape:export-ydpi="52.439999" />
    <path
       style="fill:#fffffd;fill-opacity:0.772662;stroke:#000000;stroke-width:2.097;stroke-linecap:butt;stroke-linejoin:round;stroke-miterlimit:4;stroke-dasharray:none;stroke-opacity:1"
       d="m 138.66331,114.29795 c -1.84942,3.69887 2.77421,6.47302 6.25979,6.47302 h 14.71714 c 4.01163,0.007 8.614,-2.77415 6.76458,-6.47302 0,0 -8.66616,-9.27142 -10.17189,-13.87075 -1.50567,-4.599319 0.55488,-11.836366 0.55488,-11.836366 h -8.69233 c 0,0 2.24544,7.237047 0.73972,11.836366 -1.50573,4.59933 -10.17189,13.87075 -10.17189,13.87075 z"
       id="path44-2-6-2-3-1-1-2-1-7-1-1-6-2"
       sodipodi:nodetypes="cccczcczc"
       inkscape:export-filename="/data/Engagement/Projects/Dynamic Labs/logo_square_128.png"
       inkscape:export-xdpi="52.439999"
       inkscape:export-ydpi="52.439999" />
    <path
       id="path44-2-3-6-2-3-1-4-0-7-6-3-2-2"
       style="fill:#9e00d8;fill-opacity:1;stroke:none;stroke-width:2.25819;stroke-linecap:butt;stroke-linejoin:round;stroke-miterlimit:4;stroke-dasharray:none;stroke-opacity:1"
       d="m 148.09455,108.74965 c -1.90267,-0.03 -4.3189,0.59851 -7.64021,2.41514 -0.86877,1.18168 -1.44371,1.924 -1.44371,1.924 -1.81391,4.3733 2.72107,7.65328 6.13979,7.65328 h 14.43477 c 3.93464,0.009 8.44864,-3.27998 6.63467,-7.65328 0,0 -0.56738,-0.73254 -1.4278,-1.90222 -9.70041,5.1852 -10.30567,-2.3362 -16.69751,-2.43692 z"
       inkscape:export-filename="/data/Engagement/Projects/Dynamic Labs/logo_square_128.png"
       inkscape:export-xdpi="52.439999"
       inkscape:export-ydpi="52.439999" />
    <circle
       style="fill:#9e00d8;fill-opacity:1;stroke:none;stroke-width:2.097;stroke-linejoin:round;stroke-miterlimit:4;stroke-dasharray:none"
       id="path8669-3-2-48-6-3-4-5-8-7-7-8"
       cx="155.58557"
       cy="106.43785"
       r="1.3870747"
       inkscape:export-filename="/data/Engagement/Projects/Dynamic Labs/logo_square_128.png"
       inkscape:export-xdpi="52.439999"
       inkscape:export-ydpi="52.439999" />
    <circle
       style="fill:#9e00d8;fill-opacity:1;stroke:none;stroke-width:2.097;stroke-linejoin:round;stroke-miterlimit:4;stroke-dasharray:none"
       id="path8671-2-7-2-7-5-3-4-8-9-6-3"
       cx="152.34908"
       cy="102.2766"
       r="0.92471647"
       inkscape:export-filename="/data/Engagement/Projects/Dynamic Labs/logo_square_128.png"
       inkscape:export-xdpi="52.439999"
       inkscape:export-ydpi="52.439999" />
    <path
       style="fill:none;fill-opacity:1;stroke:#000000;stroke-width:2.097;stroke-linecap:butt;stroke-linejoin:round;stroke-miterlimit:4;stroke-dasharray:none;stroke-opacity:1"
       d="m 138.66331,114.113 c -1.84942,3.69887 2.77421,6.47303 6.25979,6.47303 h 14.71714 c 4.01163,0.007 8.61406,-2.77416 6.76458,-6.47303 0,0 -8.66616,-9.27142 -10.17189,-13.87075 -1.50567,-4.599317 0.55488,-11.836364 0.55488,-11.836364 h -8.69233 c 0,0 2.24544,7.237047 0.73972,11.836364 -1.50573,4.59933 -10.17189,13.87075 -10.17189,13.87075 z"
       id="path44-2-2-8-5-5-8-5-1-2-0-6-6"
       sodipodi:nodetypes="cccczcczc"
       inkscape:export-filename="/data/Engagement/Projects/Dynamic Labs/logo_square_128.png"
       inkscape:export-xdpi="52.439999"
       inkscape:export-ydpi="52.439999" />
    <circle
       style="fill:#9e00d8;fill-opacity:1;stroke:none;stroke-width:2.097;stroke-linejoin:round;stroke-miterlimit:4;stroke-dasharray:none"
       id="path8673-7-2-6-0-4-2-4-9-1-1-9"
       cx="153.73613"
       cy="83.319931"
       r="1.3870747"
       inkscape:export-filename="/data/Engagement/Projects/Dynamic Labs/logo_square_128.png"
       inkscape:export-xdpi="52.439999"
       inkscape:export-ydpi="52.439999" />
    <circle
       style="fill:#9e00d8;fill-opacity:1;stroke:none;stroke-width:2.097;stroke-linejoin:round;stroke-miterlimit:4;stroke-dasharray:none"
       id="path8675-4-6-60-4-4-4-6-4-3-9-2"
       cx="149.07678"
       cy="78.234001"
       r="2.7741494"
       inkscape:export-filename="/data/Engagement/Projects/Dynamic Labs/logo_square_128.png"
       inkscape:export-xdpi="52.439999"
       inkscape:export-ydpi="52.439999" />
    <circle
       style="fill:#9e00d8;fill-opacity:1;stroke:none;stroke-width:2.097;stroke-linejoin:round;stroke-miterlimit:4;stroke-dasharray:none"
       id="path8677-2-5-0-8-6-8-2-2-2-3-6"
       cx="155.01382"
       cy="74.064804"
       r="0.92471647"
       inkscape:export-filename="/data/Engagement/Projects/Dynamic Labs/logo_square_128.png"
       inkscape:export-xdpi="52.439999"
       inkscape:export-ydpi="52.439999" />
    <rect
       style="fill:#ffd27c;fill-opacity:1;stroke:none;stroke-width:0.89274;stroke-linejoin:round;stroke-miterlimit:4;stroke-dasharray:none;stroke-opacity:1"
       id="rect96658-0-7-1-2-1-18-5-8"
       width="48.050919"
       height="48.050919"
       x="36.360638"
       y="165.00595"
       ry="6.3093772"
       inkscape:export-filename="/data/Engagement/Projects/Dynamic Labs/logo_name_64.png"
       inkscape:export-xdpi="33.830772"
       inkscape:export-ydpi="33.830772" />
    <path
       style="fill:#fffffd;fill-opacity:0.772662;stroke:#000000;stroke-width:1.62521;stroke-linecap:butt;stroke-linejoin:round;stroke-miterlimit:4;stroke-dasharray:none;stroke-opacity:1"
       d="m 49.940936,201.22287 c -1.433328,2.86668 2.150053,5.01668 4.85143,5.01668 h 11.406001 c 3.109073,0.005 6.675978,-2.15 5.24265,-5.01668 0,0 -6.716403,-7.18549 -7.883366,-10.75004 -1.166916,-3.56454 0.430041,-9.17336 0.430041,-9.17336 h -6.736685 c 0,0 1.740249,5.60882 0.573294,9.17336 -1.166963,3.56455 -7.883365,10.75004 -7.883365,10.75004 z"
       id="path44-2-6-2-3-1-1-2-1-7-1-1-6-2-9"
       sodipodi:nodetypes="cccczcczc"
       inkscape:export-filename="/data/Engagement/Projects/Dynamic Labs/logo_name_64.png"
       inkscape:export-xdpi="33.830772"
       inkscape:export-ydpi="33.830772" />
    <path
       id="path44-2-3-6-2-3-1-4-0-7-6-3-2-2-5"
       style="fill:#9e00d8;fill-opacity:1;stroke:none;stroke-width:1.75013;stroke-linecap:butt;stroke-linejoin:round;stroke-miterlimit:4;stroke-dasharray:none;stroke-opacity:1"
       d="m 57.250286,196.92285 c -1.474597,-0.0232 -3.347211,0.46386 -5.921276,1.87177 -0.673309,0.91582 -1.118896,1.49113 -1.118896,1.49113 -1.405807,3.38937 2.108869,5.93141 4.758428,5.93141 h 11.187161 c 3.049404,0.007 6.547821,-2.54204 5.141967,-5.93141 0,0 -0.439728,-0.56773 -1.106566,-1.47425 -7.517962,4.01861 -7.987047,-1.81059 -12.940818,-1.88865 z"
       inkscape:export-filename="/data/Engagement/Projects/Dynamic Labs/logo_name_64.png"
       inkscape:export-xdpi="33.830772"
       inkscape:export-ydpi="33.830772" />
    <circle
       style="fill:#9e00d8;fill-opacity:1;stroke:none;stroke-width:1.62521;stroke-linejoin:round;stroke-miterlimit:4;stroke-dasharray:none"
       id="path8669-3-2-48-6-3-4-5-8-7-7-8-7"
       cx="63.055943"
       cy="195.13116"
       r="1.0750035"
       inkscape:export-filename="/data/Engagement/Projects/Dynamic Labs/logo_name_64.png"
       inkscape:export-xdpi="33.830772"
       inkscape:export-ydpi="33.830772" />
    <circle
       style="fill:#9e00d8;fill-opacity:1;stroke:none;stroke-width:1.62521;stroke-linejoin:round;stroke-miterlimit:4;stroke-dasharray:none"
       id="path8671-2-7-2-7-5-3-4-8-9-6-3-1"
       cx="60.547611"
       cy="191.90614"
       r="0.71666896"
       inkscape:export-filename="/data/Engagement/Projects/Dynamic Labs/logo_name_64.png"
       inkscape:export-xdpi="33.830772"
       inkscape:export-ydpi="33.830772" />
    <path
       style="fill:none;fill-opacity:1;stroke:#000000;stroke-width:1.62521;stroke-linecap:butt;stroke-linejoin:round;stroke-miterlimit:4;stroke-dasharray:none;stroke-opacity:1"
       d="m 49.940936,201.07953 c -1.433328,2.86668 2.150053,5.01669 4.85143,5.01669 h 11.406001 c 3.109073,0.005 6.676024,-2.15001 5.24265,-5.01669 0,0 -6.716403,-7.18549 -7.883366,-10.75004 -1.166916,-3.56454 0.430041,-9.17336 0.430041,-9.17336 h -6.736685 c 0,0 1.740249,5.60882 0.573294,9.17336 -1.166963,3.56455 -7.883365,10.75004 -7.883365,10.75004 z"
       id="path44-2-2-8-5-5-8-5-1-2-0-6-6-2"
       sodipodi:nodetypes="cccczcczc"
       inkscape:export-filename="/data/Engagement/Projects/Dynamic Labs/logo_name_64.png"
       inkscape:export-xdpi="33.830772"
       inkscape:export-ydpi="33.830772" />
    <circle
       style="fill:#9e00d8;fill-opacity:1;stroke:none;stroke-width:1.62521;stroke-linejoin:round;stroke-miterlimit:4;stroke-dasharray:none"
       id="path8673-7-2-6-0-4-2-4-9-1-1-9-8"
       cx="61.622597"
       cy="177.21443"
       r="1.0750035"
       inkscape:export-filename="/data/Engagement/Projects/Dynamic Labs/logo_name_64.png"
       inkscape:export-xdpi="33.830772"
       inkscape:export-ydpi="33.830772" />
    <circle
       style="fill:#9e00d8;fill-opacity:1;stroke:none;stroke-width:1.62521;stroke-linejoin:round;stroke-miterlimit:4;stroke-dasharray:none"
       id="path8675-4-6-60-4-4-4-6-4-3-9-2-9"
       cx="58.011536"
       cy="173.27277"
       r="2.150007"
       inkscape:export-filename="/data/Engagement/Projects/Dynamic Labs/logo_name_64.png"
       inkscape:export-xdpi="33.830772"
       inkscape:export-ydpi="33.830772" />
    <circle
       style="fill:#9e00d8;fill-opacity:1;stroke:none;stroke-width:1.62521;stroke-linejoin:round;stroke-miterlimit:4;stroke-dasharray:none"
       id="path8677-2-5-0-8-6-8-2-2-2-3-6-6"
       cx="62.612831"
       cy="170.04156"
       r="0.71666896"
       inkscape:export-filename="/data/Engagement/Projects/Dynamic Labs/logo_name_64.png"
       inkscape:export-xdpi="33.830772"
       inkscape:export-ydpi="33.830772" />
    <rect
       style="fill:#ffd27c;fill-opacity:1;stroke:none;stroke-width:1.1519;stroke-linejoin:round;stroke-miterlimit:4;stroke-dasharray:none;stroke-opacity:1"
       id="rect96658-0-7-1-2-1-18-5-4"
       width="62"
       height="62"
       x="25.44416"
       y="65.802704"
       ry="31"
       inkscape:export-filename="/data/Engagement/Projects/Dynamic Labs/logo_round_512.png"
       inkscape:export-xdpi="209.75"
       inkscape:export-ydpi="209.75" />
    <path
       style="fill:#fffffd;fill-opacity:0.772662;stroke:#000000;stroke-width:2.097;stroke-linecap:butt;stroke-linejoin:round;stroke-miterlimit:4;stroke-dasharray:none;stroke-opacity:1"
       d="m 42.966803,112.53331 c -1.84942,3.69887 2.77421,6.47302 6.25979,6.47302 h 14.71714 c 4.01163,0.007 8.614,-2.77415 6.76458,-6.47302 0,0 -8.66616,-9.27142 -10.17189,-13.87075 -1.50567,-4.59932 0.55488,-11.83636 0.55488,-11.83636 h -8.69233 c 0,0 2.24544,7.23704 0.73972,11.83636 -1.50573,4.59933 -10.17189,13.87075 -10.17189,13.87075 z"
       id="path44-2-6-2-3-1-1-2-1-7-1-1-6-2-0"
       sodipodi:nodetypes="cccczcczc"
       inkscape:export-filename="/data/Engagement/Projects/Dynamic Labs/logo_round_512.png"
       inkscape:export-xdpi="209.75"
       inkscape:export-ydpi="209.75" />
    <path
       id="path44-2-3-6-2-3-1-4-0-7-6-3-2-2-1"
       style="fill:#9e00d8;fill-opacity:1;stroke:none;stroke-width:2.25819;stroke-linecap:butt;stroke-linejoin:round;stroke-miterlimit:4;stroke-dasharray:none;stroke-opacity:1"
       d="m 52.398043,106.98501 c -1.90267,-0.03 -4.3189,0.59851 -7.64021,2.41514 -0.86877,1.18168 -1.44371,1.924 -1.44371,1.924 -1.81391,4.3733 2.72107,7.65328 6.13979,7.65328 h 14.43477 c 3.93464,0.009 8.44864,-3.27998 6.63467,-7.65328 0,0 -0.56738,-0.73254 -1.4278,-1.90222 -9.70041,5.1852 -10.30567,-2.3362 -16.69751,-2.43692 z"
       inkscape:export-filename="/data/Engagement/Projects/Dynamic Labs/logo_round_512.png"
       inkscape:export-xdpi="209.75"
       inkscape:export-ydpi="209.75" />
    <circle
       style="fill:#9e00d8;fill-opacity:1;stroke:none;stroke-width:2.097;stroke-linejoin:round;stroke-miterlimit:4;stroke-dasharray:none"
       id="path8669-3-2-48-6-3-4-5-8-7-7-8-4"
       cx="59.889061"
       cy="104.67321"
       r="1.3870747"
       inkscape:export-filename="/data/Engagement/Projects/Dynamic Labs/logo_round_512.png"
       inkscape:export-xdpi="209.75"
       inkscape:export-ydpi="209.75" />
    <circle
       style="fill:#9e00d8;fill-opacity:1;stroke:none;stroke-width:2.097;stroke-linejoin:round;stroke-miterlimit:4;stroke-dasharray:none"
       id="path8671-2-7-2-7-5-3-4-8-9-6-3-2"
       cx="56.652565"
       cy="100.51197"
       r="0.92471647"
       inkscape:export-filename="/data/Engagement/Projects/Dynamic Labs/logo_round_512.png"
       inkscape:export-xdpi="209.75"
       inkscape:export-ydpi="209.75" />
    <path
       style="fill:none;fill-opacity:1;stroke:#000000;stroke-width:2.097;stroke-linecap:butt;stroke-linejoin:round;stroke-miterlimit:4;stroke-dasharray:none;stroke-opacity:1"
       d="m 42.966803,112.34836 c -1.84942,3.69887 2.77421,6.47303 6.25979,6.47303 h 14.71714 c 4.01163,0.007 8.61406,-2.77416 6.76458,-6.47303 0,0 -8.66616,-9.27142 -10.17189,-13.87075 -1.50567,-4.59931 0.55488,-11.83636 0.55488,-11.83636 h -8.69233 c 0,0 2.24544,7.23705 0.73972,11.83636 -1.50573,4.59933 -10.17189,13.87075 -10.17189,13.87075 z"
       id="path44-2-2-8-5-5-8-5-1-2-0-6-6-7"
       sodipodi:nodetypes="cccczcczc"
       inkscape:export-filename="/data/Engagement/Projects/Dynamic Labs/logo_round_512.png"
       inkscape:export-xdpi="209.75"
       inkscape:export-ydpi="209.75" />
    <circle
       style="fill:#9e00d8;fill-opacity:1;stroke:none;stroke-width:2.097;stroke-linejoin:round;stroke-miterlimit:4;stroke-dasharray:none"
       id="path8673-7-2-6-0-4-2-4-9-1-1-9-3"
       cx="58.039619"
       cy="81.55529"
       r="1.3870747"
       inkscape:export-filename="/data/Engagement/Projects/Dynamic Labs/logo_round_512.png"
       inkscape:export-xdpi="209.75"
       inkscape:export-ydpi="209.75" />
    <circle
       style="fill:#9e00d8;fill-opacity:1;stroke:none;stroke-width:2.097;stroke-linejoin:round;stroke-miterlimit:4;stroke-dasharray:none"
       id="path8675-4-6-60-4-4-4-6-4-3-9-2-5"
       cx="53.380272"
       cy="76.469368"
       r="2.7741494"
       inkscape:export-filename="/data/Engagement/Projects/Dynamic Labs/logo_round_512.png"
       inkscape:export-xdpi="209.75"
       inkscape:export-ydpi="209.75" />
    <circle
       style="fill:#9e00d8;fill-opacity:1;stroke:none;stroke-width:2.097;stroke-linejoin:round;stroke-miterlimit:4;stroke-dasharray:none"
       id="path8677-2-5-0-8-6-8-2-2-2-3-6-7"
       cx="59.317314"
       cy="72.300163"
       r="0.92471647"
       inkscape:export-filename="/data/Engagement/Projects/Dynamic Labs/logo_round_512.png"
       inkscape:export-xdpi="209.75"
       inkscape:export-ydpi="209.75" />
  </g>
</svg>
